<mxfile host="app.diagrams.net" modified="2024-01-19T13:47:01.337Z" agent="Mozilla/5.0 (Windows NT 10.0; Win64; x64) AppleWebKit/537.36 (KHTML, like Gecko) Chrome/120.0.0.0 Safari/537.36" version="22.1.21" etag="T6u3wleKYNFtTMIcYKPZ" type="github">
  <diagram name="第 1 页" id="wpwkrIub6AmmupDAmEo1">
    <mxGraphModel>
      <root>
        <mxCell id="0" />
        <mxCell id="1" parent="0" />
      </root>
    </mxGraphModel>
  </diagram>
</mxfile>
